<svg xmlns="http://www.w3.org/2000/svg" xmlns:xlink="http://www.w3.org/1999/xlink" width="414" zoomAndPan="magnify" viewBox="0 0 310.5 671.999985" height="896" preserveAspectRatio="xMidYMid meet" version="1.0"><defs><clipPath id="ce7a80c1f3"><path d="M 126 306.148438 L 192.828125 306.148438 L 192.828125 381.289062 L 126 381.289062 Z M 126 306.148438 " clip-rule="nonzero"/></clipPath><clipPath id="672c92265f"><path d="M 117.222656 291 L 188 291 L 188 370 L 117.222656 370 Z M 117.222656 291 " clip-rule="nonzero"/></clipPath></defs><g clip-path="url(#ce7a80c1f3)"><path fill="#a5edf5" d="M 126.125 374.5625 L 126.125 312.890625 C 126.125 307.722656 131.710938 304.488281 136.179688 307.078125 L 189.476562 337.910156 C 193.945312 340.496094 193.945312 346.960938 189.476562 349.542969 L 136.179688 380.378906 C 131.710938 382.964844 126.125 379.734375 126.125 374.5625 " fill-opacity="1" fill-rule="nonzero"/></g><g clip-path="url(#672c92265f)"><path fill="#001d4a" d="M 125.6875 294.855469 C 124.835938 294.855469 123.988281 295.078125 123.214844 295.527344 C 121.667969 296.421875 120.746094 298.023438 120.746094 299.816406 L 120.746094 361.484375 C 120.746094 363.273438 121.667969 364.878906 123.214844 365.773438 C 124.761719 366.667969 126.609375 366.667969 128.15625 365.773438 L 181.457031 334.9375 C 183.003906 334.042969 183.925781 332.4375 183.925781 330.648438 C 183.925781 328.859375 183.003906 327.257812 181.457031 326.363281 L 128.15625 295.527344 C 127.382812 295.078125 126.535156 294.855469 125.6875 294.855469 Z M 125.6875 369.980469 C 124.234375 369.980469 122.78125 369.597656 121.453125 368.832031 C 118.804688 367.296875 117.222656 364.550781 117.222656 361.484375 L 117.222656 299.816406 C 117.222656 296.746094 118.804688 294.003906 121.453125 292.46875 C 124.105469 290.9375 127.269531 290.933594 129.917969 292.46875 L 183.21875 323.304688 C 185.867188 324.835938 187.449219 327.582031 187.449219 330.648438 C 187.449219 333.714844 185.867188 336.464844 183.21875 337.996094 L 129.917969 368.832031 C 128.59375 369.597656 127.140625 369.980469 125.6875 369.980469 " fill-opacity="1" fill-rule="nonzero"/></g></svg>